<svg id="Capa_1" data-name="Capa 1" xmlns="http://www.w3.org/2000/svg" viewBox="0 0 1080 1080"><defs><style>.cls-1{fill:#424242;}</style></defs><title>Sauara Things</title><path class="cls-1" d="M723.5,529.86l-5.12-5.12a6.7,6.7,0,1,0-.5.5l5.13,5.12a.34.34,0,0,0,.24.1.35.35,0,0,0,.25-.6Zm-10.07-3.61a6,6,0,1,1,6-6A6,6,0,0,1,713.43,526.25Z"/><path class="cls-1" d="M764.77,231.32h-35.5a19.27,19.27,0,0,0,0,38.54h35.5a19.27,19.27,0,1,0,0-38.54Z"/><path class="cls-1" d="M449.82,1018c7.41,3.7,13.76,5.38,20.38,5.38a41.73,41.73,0,0,0,24.69-7.46l131.34-91.12c17.53-13.17,27.68-33,27.68-54.36V635.88l1-1.2,416.41-524A42.72,42.72,0,0,0,1036.85,42H43.15C27.38,42,12.21,51.35,4.46,65.75a42.73,42.73,0,0,0,4.36,45L427.29,637.07V980.49A42.17,42.17,0,0,0,449.82,1018ZM184.3,269.86H622.8a19.27,19.27,0,1,0,0-38.54H154.6l-1.31-1.64L34,80.57H1045.94l-426.64,537c-2.67,4-3.91,7.72-3.91,11.61V869.28a29.55,29.55,0,0,1-11.11,23.55l-138.47,96V629.14c0-6.74-2.75-12.41-7.31-15.17l-1.16-1Z"/></svg>