<svg id="Capa_1" data-name="Capa 1" xmlns="http://www.w3.org/2000/svg" viewBox="0 0 1080 1080"><defs><style>.cls-1{fill:#424242;}</style></defs><title>Sauara Things</title><path class="cls-1" d="M358.92,499H147.55C68.25,499,3.74,434.44,3.74,355.14V143.81C3.74,64.51,68.25,0,147.55,0H358.92c79.3,0,143.81,64.51,143.81,143.81V355.14C502.73,434.44,438.22,499,358.92,499ZM147.55,37.11a106.83,106.83,0,0,0-106.7,106.7V355.14a106.83,106.83,0,0,0,106.7,106.7H358.92a106.83,106.83,0,0,0,106.7-106.7V143.81a106.83,106.83,0,0,0-106.7-106.7Z"/><path class="cls-1" d="M936.19,499H724.86c-79.3,0-143.81-64.51-143.81-143.81V143.81C581.05,64.51,645.56,0,724.86,0H936.19C1015.49,0,1080,64.51,1080,143.81V355.14C1080,434.44,1015.49,499,936.19,499ZM724.86,37.11a106.83,106.83,0,0,0-106.7,106.7V355.14a106.83,106.83,0,0,0,106.7,106.7H936.19a106.83,106.83,0,0,0,106.7-106.7V143.81a106.83,106.83,0,0,0-106.7-106.7Z"/><path class="cls-1" d="M358.92,1076.26H147.55c-79.3,0-143.81-64.51-143.81-143.81V721.12c0-79.3,64.51-143.81,143.81-143.81H358.92c79.3,0,143.81,64.51,143.81,143.81V932.45C502.73,1011.75,438.22,1076.26,358.92,1076.26ZM147.55,614.42a106.83,106.83,0,0,0-106.7,106.7V932.45a106.83,106.83,0,0,0,106.7,106.7H358.92a106.83,106.83,0,0,0,106.7-106.7V721.12a106.83,106.83,0,0,0-106.7-106.7Z"/><path class="cls-1" d="M936.19,1076.26H724.86c-79.3,0-143.81-64.51-143.81-143.81V721.12c0-79.3,64.51-143.81,143.81-143.81H936.19c79.3,0,143.81,64.51,143.81,143.81V932.45C1080,1011.75,1015.49,1076.26,936.19,1076.26ZM724.86,614.42a106.83,106.83,0,0,0-106.7,106.7V932.45a106.83,106.83,0,0,0,106.7,106.7H936.19a106.83,106.83,0,0,0,106.7-106.7V721.12a106.83,106.83,0,0,0-106.7-106.7Z"/></svg>