<svg id="Capa_1" data-name="Capa 1" xmlns="http://www.w3.org/2000/svg" viewBox="0 0 1080 1080"><defs><style>.cls-1{fill:#424242;}</style></defs><title>Sauara Things</title><path class="cls-1" d="M1020.32,108.43H538a58,58,0,0,0-57.9,58V391.54L306.34,40.89A24.83,24.83,0,0,0,284,27.05h-.06a24.75,24.75,0,0,0-22.22,13.84L6.3,556.31A43.44,43.44,0,0,0,45.23,619H228.54c-29.5,57.1-39.54,120.91-29,185.27,21.24,130.37,127.93,231.83,259.52,246.7a312,312,0,0,0,34.83,2c73.2,0,142.43-26.32,197.82-75.81A297.27,297.27,0,0,0,758.29,619h262a58,58,0,0,0,57.9-58V166.39A58,58,0,0,0,1020.32,108.43ZM253.39,579.17H89.18a30.86,30.86,0,0,1-27.67-44.59L273,107.88a12.34,12.34,0,0,1,22.1,0l173.7,350.53C382.73,465.51,304.81,509.09,253.39,579.17Zm266.5-120.61V193.66a45.45,45.45,0,0,1,45.42-45.39H993a45.5,45.5,0,0,1,45.48,45.39V533.79A45.5,45.5,0,0,1,993,579.17H733.44A296.89,296.89,0,0,0,519.89,458.56ZM240.17,704.37C259.58,602.62,341,521.18,442.77,501.71a273.63,273.63,0,0,1,51.17-4.89c68.12,0,132.51,26.38,181.85,75.71,61.57,61.58,87.4,146.53,70.87,233.08C727.2,907.4,645.79,988.83,544.07,1008.24,457.34,1024.61,372.57,999,311,937.42S223.65,791,240.17,704.37Z"/></svg>