<svg width="25" height="24" viewBox="0 0 25 24" fill="none" xmlns="http://www.w3.org/2000/svg">
<path d="M18.4836 16.617L22.7666 20.899L21.3516 22.314L17.0696 18.031C15.4764 19.3082 13.4946 20.0029 11.4526 20C6.48464 20 2.45264 15.968 2.45264 11C2.45264 6.032 6.48464 2 11.4526 2C16.4206 2 20.4526 6.032 20.4526 11C20.4555 13.042 19.7609 15.0237 18.4836 16.617ZM16.4776 15.875C17.7467 14.5699 18.4555 12.8204 18.4526 11C18.4526 7.132 15.3196 4 11.4526 4C7.58464 4 4.45264 7.132 4.45264 11C4.45264 14.867 7.58464 18 11.4526 18C13.2731 18.0029 15.0225 17.2941 16.3276 16.025L16.4776 15.875Z" fill="#F8F9FA"/>
</svg>
